<?xml version="1.0" encoding="UTF-8" standalone="no"?>
<svg
   width="96"
   height="113.168"
   viewBox="0 0 96 113.168"
   fill="none"
   version="1.1"
   id="svg117"
   sodipodi:docname="ademe.svg"
   inkscape:version="1.1.2 (0a00cf5339, 2022-02-04)"
   xmlns:inkscape="http://www.inkscape.org/namespaces/inkscape"
   xmlns:sodipodi="http://sodipodi.sourceforge.net/DTD/sodipodi-0.dtd"
   xmlns="http://www.w3.org/2000/svg"
   xmlns:svg="http://www.w3.org/2000/svg">
  <defs
     id="defs121" />
  <sodipodi:namedview
     id="namedview119"
     pagecolor="#505050"
     bordercolor="#eeeeee"
     borderopacity="1"
     inkscape:pageshadow="0"
     inkscape:pageopacity="0"
     inkscape:pagecheckerboard="0"
     showgrid="false"
     fit-margin-top="0"
     fit-margin-left="0"
     fit-margin-right="0"
     fit-margin-bottom="0"
     inkscape:zoom="2.78"
     inkscape:cx="-37.589928"
     inkscape:cy="55.395683"
     inkscape:window-width="1920"
     inkscape:window-height="1025"
     inkscape:window-x="1920"
     inkscape:window-y="0"
     inkscape:window-maximized="1"
     inkscape:current-layer="svg117" />
  <mask
     id="mask0"
     mask-type="alpha"
     maskUnits="userSpaceOnUse"
     x="18"
     y="20"
     width="57"
     height="20">
    <rect
       x="18"
       y="20"
       width="57"
       height="20"
       fill="#c4c4c4"
       id="rect14" />
  </mask>
  <g
     mask="url(#mask0)"
     id="g17"
     transform="translate(-191,-20)" />
  <mask
     id="mask1"
     mask-type="alpha"
     maskUnits="userSpaceOnUse"
     x="18"
     y="94"
     width="54"
     height="37">
    <rect
       x="18"
       y="94"
       width="54"
       height="37"
       fill="#c4c4c4"
       id="rect27" />
  </mask>
  <g
     mask="url(#mask1)"
     id="g30"
     transform="translate(-191,-20)" />
  <path
     d="M 0,113.168 H 96 V 0 H 0 Z"
     fill="#00489a"
     id="path32" />
  <path
     d="m 2.135,111.033 h 91.73 V 2.1333 H 2.135 Z"
     fill="#ffffff"
     id="path34" />
  <path
     d="m 29.146,63.5901 c 4.071,6.1485 11.056,10.2086 18.984,10.2086 12.566,0 22.751,-10.1889 22.751,-22.7531 0,-1.2254 -0.097,-2.4275 -0.283,-3.599 C 69.539,40.785 65.589,35.0869 60.074,31.678 56.602,29.5322 52.511,28.2943 48.13,28.2943 c -3.866,0 -7.51,0.9634 -10.697,2.6643 -2.684,1.4335 -5.045,3.3873 -6.952,5.7268 -2.66,3.2671 -4.431,7.2842 -4.948,11.6852 -0.102,0.8791 -0.156,1.769 -0.156,2.675 0,4.636 1.387,8.9491 3.769,12.5445 z"
     fill="#8f9ace"
     id="path36" />
  <path
     d="m 60.023,32.3593 -3.563,0.7589 2.457,1.4138 0.829,-0.9653 1.007,-0.6441 z m 0.052,-0.6764 c 5.515,3.4088 9.465,9.107 10.524,15.7703 l -0.002,-0.0053 -1.778,1.5214 -1.135,-0.2673 -0.532,0.4664 0.038,0.3158 c 0.018,0.1435 0.083,0.4396 0.192,0.8809 0.228,0.906 0.343,1.8103 0.343,2.6912 0,0.8199 -0.032,1.0872 -0.215,1.8802 l -0.969,0.0054 -2.724,-2.2085 -2.076,0.4682 -1.338,-0.2278 -1.699,0.5203 0.768,0.662 1.333,-0.3768 1.152,0.9222 -0.182,0.4037 -0.475,0.7661 -1.023,1.464 -1.577,1.272 -2.915,-3.0249 -0.754,0.0808 3.11,3.5631 1.261,-0.253 0.314,0.6441 -1.27,2.0758 -2.469,2.3575 -1.111,2.815 c -0.025,0.0717 -0.141,0.1614 -0.319,0.2476 -0.357,0.1704 -0.775,0.4772 -1.24,0.9132 -0.595,0.5579 -0.929,0.8665 -1.001,0.9293 -0.491,0.4306 -1.08,0.8809 -1.767,1.342 -0.682,0.4611 -1.364,0.8648 -2.04,1.2093 -1.195,0.6082 -2.537,0.9455 -3.752,0.9455 -0.796,0 -1.605,-0.1346 -2.391,-0.4019 -0.108,-0.0359 -0.178,-0.0897 -0.178,-0.1382 l 0.539,-1.5232 c 0.023,-0.0717 0.48,-0.5884 1.34,-1.5268 0.389,-0.4252 0.705,-0.9993 0.925,-1.6864 0.327,-1.0119 0.557,-1.6345 0.693,-1.8534 0.493,-0.7966 0.728,-1.4765 0.563,-1.6434 l -3.225,-3.2438 -1.353,-2.5153 0.143,-0.5957 c 0.101,-0.4144 0.429,-1.1428 1.057,-2.3431 0.339,-0.6513 0.619,-0.994 0.929,-1.1465 l 2.159,-1.0639 4.189,0.6316 1.276,0.8522 0.601,-0.0736 2.558,0.6656 0.641,-1.6667 -3.253,-0.915 -1.15,-1.1447 -0.16,0.0431 0.538,1.3599 -0.649,0.1292 -0.07,-0.1597 0.226,-0.0412 c 0.011,0.0143 -0.194,-0.8361 -0.7,-1.0747 -0.181,-0.0825 -0.299,-0.1633 -0.484,-0.1633 -0.248,0 -0.655,0.1525 -0.865,0.3481 -0.71,0.6548 -1.267,1.1034 -1.319,1.0639 l -1.334,-1.0101 0.495,-1.2451 0.204,0.0502 c 0.121,0.0287 0.25,0.0431 0.379,0.0431 0.42,0 0.678,-0.244 0.73,-0.4844 0.065,-0.2996 -0.142,-0.4468 -0.142,-0.4468 0.008,-0.0071 -0.127,-0.1417 -0.127,-0.1417 0,0.0161 0.192,-0.2171 0.183,-0.2171 -0.005,0 0.508,0.131 0.8,0.1471 0.341,0.0198 0.675,-0.0574 0.811,-0.2081 l 0.323,-0.5113 0.545,-0.1507 0.096,-0.7213 0.333,0.0234 c 0,0 0.189,0.2583 0.266,0.6064 l 0.94,-0.244 0.278,-0.9653 -0.151,-0.1704 0.413,-0.924 -0.357,-0.2529 -0.605,1.7062 -0.332,0.043 -0.147,-0.3803 -0.848,0.0646 -0.476,-0.7625 1.032,-1.0622 1.004,-1.3474 1.418,0.445 0.346,0.7015 0.432,-0.0108 -0.157,-1.0226 1.16,-1.0891 -0.773,-3.4985 0.495,-1.098 0.562,0.0323 0.075,-0.863 -3.699,-4.0529 0.118,-1.0944 3.063,-0.6979 0.439,0.1309 1.742,-0.1686 0.404,0.1812 2.81,-0.2799 z m -30.931,31.9067 1.573,-1.3025 1.292,0.3247 3.454,-2.5997 0.167,-1.3868 -2.272,-3.3102 c -0.036,-0.0484 -0.183,-2.1171 -0.622,-3.6672 -0.232,-0.8091 -0.761,-3.163 -0.782,-3.2115 l -0.3,-0.5992 -2.158,-3.242 1.401,-3.5039 1.118,-0.0485 0.066,-0.5149 -0.827,-0.6925 -0.025,-0.1489 -0.027,-0.6567 c 0,-0.4467 0.757,-0.8952 1.261,-0.8952 0.135,0 0.276,0.0197 0.424,0.061 0.353,0.0969 0.687,0.3875 0.986,0.6064 0.056,0.0395 0.996,2.2337 0.996,2.2337 l -0.798,0.6405 -0.391,0.9616 0.545,0.427 0.759,-1.3115 3.149,1.0568 1.93,1.0998 0.585,-0.6406 1.62,0.1346 1.184,-1.6129 -1.071,-0.4073 1.123,-1.3527 -0.133,-0.454 -1.713,-0.3319 1.313,-1.3761 1.245,0.8128 -0.025,0.3642 0.806,0.1005 0.68,-1.2918 -0.476,-0.418 2.006,-1.9287 1.814,-0.8469 1.412,-0.9257 0.273,-0.2153 0.057,-0.994 -0.24,-0.7033 -0.625,-0.2404 0.801,-0.6279 -0.221,-0.1184 c -0.535,0.357 -1.803,1.2272 -4.017,1.385 -1.575,0.1113 -4.762,-0.5902 -4.762,-0.5902 l -3.161,-0.4737 -1.103,-0.1955 c -2.684,1.4317 -5.045,3.3819 -6.953,5.7232 l -0.095,2.9854 -0.477,1.3636 -1.13,3.9506 0.364,1.1142 -1.796,0.2548 -1.812,2.0165 c -0.1,0.8774 -0.153,1.7708 -0.153,2.6751 0,4.636 1.386,8.9491 3.766,12.5445 z m 3.547,-14.6436 0.1,0.4305 0.411,-0.1363 -0.136,-0.4342 z m 16.99,2.9782 -0.285,-0.0359 -0.02,0.5383 0.287,0.052 0.171,-0.6907 -0.09,-0.0359 z m 7.625,17.1357 c 0,0.0072 -0.245,-0.2709 -0.245,-0.2709 10e-4,0.0089 -0.381,0.2314 -0.381,0.2314 0,0 0.289,0.2871 0.28,0.2871 z m 0.53,-2.7648 -0.718,0.4163 -0.917,0.1937 -2.013,1.979 0.124,0.4395 0.292,-0.0394 1.149,-0.4952 c 0.299,-0.1274 1.241,-0.6549 1.731,-1.1824 0.461,-0.5005 0.601,-0.6943 0.868,-1.202 z M 47.155,48.397 l 0.497,0.1381 0.149,-0.4611 -0.353,-0.0843 z m 1.337,-0.9814 c 0,0 -0.578,1.4137 -0.578,1.4209 0,0 0.912,0.0861 0.912,0.0933 l 0.215,-1.1626 -0.158,-0.1184 0.108,-0.3965 -0.458,-0.2512 -0.149,0.2996 z m -15.114,1.324 c 0.007,0 0.318,-0.122 0.318,-0.122 l -0.122,-0.2673 c 0,0 -0.18,0.1543 -0.176,0.1722 z m -0.226,-0.8576 0.126,0.3015 0.369,-0.1651 c 0,0 -0.1,-0.2763 -0.113,-0.2763 z m -0.249,-0.9939 0.071,0.4647 0.44,-0.0018 -0.059,-0.4988 z m -0.415,-0.8612 0.226,0.3553 0.434,0.0645 0.194,-0.8719 -0.708,-0.1722 z m -0.377,-1.1105 0.715,0.0861 0.22,-1.6865 0.006,-0.5077 -0.126,-0.5132 -0.368,-0.0287 z m 15.835,-9.1447 -2.059,1.638 0.732,0.5275 1.643,-1.6739 z m -1.813,2.8222 -0.291,-0.0126 -0.562,1.0209 -0.873,0.0681 -0.998,1.4371 0.544,0.3427 1.343,-0.854 1.027,-1.0962 z m -0.499,2.3951 -1.016,0.8953 v 0.6082 l 1.615,0.3983 3.219,-2.1853 -0.086,-0.8916 -1.276,-0.4414 z m -4.878,2.6571 1.211,0.1938 -0.417,0.7966 -1.04,-0.5741 z"
     fill="#00489a"
     id="path38" />
  <path
     d="m 20.044,13.3242 -1.143,3.3945 h 2.214 z m 2.481,7.896 -0.588,-1.8946 h -3.909 l -0.627,1.8946 H 14.134 L 18.758,8.5016 h 2.411 l 4.623,12.7186 z"
     fill="#e42313"
     id="path40" />
  <path
     d="m 35.35,12.0026 c -0.286,-0.4288 -0.714,-0.7141 -1.5,-0.7141 h -1.375 v 7.1442 h 1.375 c 0.786,0 1.214,-0.2852 1.5,-0.714 0.249,-0.357 0.339,-0.6961 0.339,-2.8581 0,-2.1439 -0.09,-2.501 -0.339,-2.858 z m 2.142,7.9659 c -0.876,0.8756 -2.106,1.2505 -3.429,1.2505 H 29.35 V 8.5023 h 4.713 c 1.323,0 2.553,0.3749 3.429,1.2505 1.482,1.4819 1.32,3.1074 1.32,5.1078 0,2.0005 0.162,3.626 -1.32,5.1079 z"
     fill="#e42313"
     id="path42" />
  <path
     d="M 43.057,21.2194 V 8.5009 h 8.64 v 2.7862 H 46.18 v 2.1261 h 4.715 v 2.7863 H 46.18 v 2.2336 h 5.517 v 2.7863 z"
     fill="#e42313"
     id="path44" />
  <path
     d="m 64.759,21.2194 v -6.091 l -1.803,3.1433 h -2.001 l -1.803,-3.1433 v 6.091 H 56.028 V 8.5009 H 59.1 l 2.856,5.6102 2.856,-5.6102 h 3.07 v 12.7185 z"
     fill="#e42313"
     id="path46" />
  <path
     d="M 72.517,21.2194 V 8.5009 h 8.641 v 2.7862 h -5.517 v 2.1261 h 4.715 v 2.7863 h -4.715 v 2.2336 h 5.517 v 2.7863 z"
     fill="#e42313"
     id="path48" />
  <path
     d="m 16.591,84.635 0.608,-1.803 0.569,1.803 z m 0.075,-3.681 -2.024,5.565 h 1.321 l 0.28,-0.849 h 1.85 l 0.263,0.849 h 1.323 l -2.026,-5.565 z"
     fill="#e42313"
     id="path50" />
  <path
     d="m 23.287,86.566 c 0.706,0 1.187,-0.184 1.609,-0.619 v -0.001 c 0.405,-0.413 0.558,-0.915 0.558,-1.85 v -0.725 h -2.101 v 1.035 h 0.841 v 0.147 c 0,0.271 -0.084,0.505 -0.236,0.655 -0.151,0.162 -0.377,0.242 -0.671,0.242 -0.255,0 -0.476,-0.095 -0.605,-0.265 -0.135,-0.176 -0.223,-0.371 -0.223,-1.448 0,-1.069 0.088,-1.265 0.223,-1.442 0.131,-0.173 0.357,-0.273 0.605,-0.273 0.475,0 0.737,0.192 0.868,0.639 h 1.279 c -0.104,-0.584 -0.515,-1.755 -2.147,-1.755 -0.634,0 -1.107,0.192 -1.538,0.621 -0.558,0.558 -0.558,1.315 -0.556,2.115 v 0.19 c -0.002,0.8 -0.002,1.556 0.556,2.114 0.423,0.423 0.911,0.62 1.538,0.62 z"
     fill="#e42313"
     id="path52" />
  <path
     d="m 28.862,84.27 h 2.114 v -1.116 h -2.114 v -1.086 h 2.473 v -1.114 h -3.739 v 5.566 h 3.739 v -1.116 h -2.473 z"
     fill="#e42313"
     id="path54" />
  <path
     d="m 37.818,86.518 v -5.565 h -1.267 v 3.029 l -1.929,-3.029 h -1.121 v 5.565 h 1.267 v -3.026 l 1.928,3.026 z"
     fill="#e42313"
     id="path56" />
  <path
     d="m 42.841,84.844 c -0.085,0.274 -0.26,0.608 -0.779,0.608 -0.255,0 -0.475,-0.097 -0.605,-0.267 -0.134,-0.176 -0.229,-0.383 -0.229,-1.448 0,-1.066 0.095,-1.274 0.229,-1.45 0.13,-0.169 0.35,-0.265 0.605,-0.265 0.519,0 0.694,0.331 0.779,0.608 h 1.295 c -0.212,-1.096 -0.965,-1.724 -2.081,-1.724 -0.626,0 -1.116,0.197 -1.538,0.622 -0.558,0.556 -0.558,1.313 -0.556,2.112 v 0.192 c -0.002,0.8 -0.002,1.555 0.556,2.113 0.422,0.424 0.912,0.621 1.538,0.621 1.116,0 1.869,-0.626 2.081,-1.722 z"
     fill="#e42313"
     id="path58" />
  <path
     d="m 47.326,84.27 h 2.114 v -1.116 h -2.114 v -1.086 h 2.472 V 80.954 H 46.06 v 5.566 h 3.738 v -1.116 h -2.472 z"
     fill="#e42313"
     id="path60" />
  <path
     d="m 58.287,85.057 c -0.16,0.237 -0.39,0.348 -0.729,0.348 h -0.681 v -3.333 h 0.681 c 0.339,0 0.569,0.111 0.729,0.348 0.125,0.181 0.163,0.377 0.163,1.319 0,0.995 -0.041,1.144 -0.163,1.318 z m 1.431,-1.078 c -0.001,-0.079 -0.001,-0.16 -0.001,-0.24 0,-0.083 0,-0.162 0.001,-0.243 0.006,-0.791 0.011,-1.415 -0.574,-1.998 -0.353,-0.356 -0.868,-0.542 -1.489,-0.542 H 55.61 v 5.565 h 2.045 c 0.621,0 1.136,-0.188 1.489,-0.542 0.585,-0.583 0.58,-1.209 0.574,-2"
     fill="#e42313"
     id="path62" />
  <path
     d="m 63.127,84.272 h 2.114 V 83.156 H 63.127 V 82.07 h 2.472 v -1.114 h -3.738 v 5.566 h 3.738 v -1.116 h -2.472 z"
     fill="#e42313"
     id="path64" />
  <path
     d="m 72.68,80.954 h -1.267 v 5.565 h 3.66 V 85.403 H 72.68 Z"
     fill="#e42313"
     id="path66" />
  <path
     d="m 78.249,84.635 0.608,-1.803 0.569,1.803 z m 1.766,1.884 h 1.322 l -2.026,-5.565 h -0.987 l -2.023,5.565 h 1.32 l 0.28,-0.849 h 1.85 z"
     fill="#e42313"
     id="path68" />
  <path
     d="m 16.256,95.589 h 1.269 V 91.14 h 1.403 v -1.116 h -4.075 v 1.116 h 1.403 z"
     fill="#e42313"
     id="path70" />
  <path
     d="m 24.364,92.433 h -0.859 v -1.284 h 0.859 c 0.44,0 0.677,0.33 0.677,0.642 0,0.31 -0.237,0.642 -0.677,0.642 z m 1.053,0.786 c 0.208,-0.104 0.892,-0.517 0.892,-1.428 0,-0.877 -0.646,-1.767 -1.88,-1.767 h -2.193 v 5.565 h 1.269 v -2.121 h 0.581 l 1.01,2.121 h 1.475 L 25.356,93.25 Z"
     fill="#e42313"
     id="path72" />
  <path
     d="m 31.22,93.706 0.608,-1.803 0.571,1.803 z m 0.075,-3.682 -2.027,5.566 h 1.324 l 0.28,-0.849 h 1.851 l 0.266,0.849 h 1.322 l -2.027,-5.566 z"
     fill="#e42313"
     id="path74" />
  <path
     d="m 37.407,90.024 v 5.566 h 1.268 v -3.029 l 1.931,3.029 h 1.123 V 90.024 H 40.46 v 3.027 l -1.93,-3.027 z"
     fill="#e42313"
     id="path76" />
  <path
     d="m 47.581,92.257 -0.689,-0.096 c -0.183,-0.023 -0.329,-0.086 -0.431,-0.186 -0.118,-0.12 -0.133,-0.259 -0.133,-0.312 0,-0.287 0.237,-0.596 0.757,-0.596 h 0.043 c 0.252,0 0.686,-0.002 1.037,0.31 l 0.79,-0.785 c -0.452,-0.426 -1.019,-0.616 -1.83,-0.616 -1.206,0 -2.017,0.696 -2.017,1.735 0,0.472 0.126,0.842 0.373,1.098 0.246,0.251 0.618,0.415 1.109,0.485 l 0.689,0.095 c 0.185,0.025 0.325,0.082 0.415,0.17 0.089,0.099 0.131,0.224 0.131,0.384 0,0.264 -0.153,0.579 -0.885,0.579 -0.258,0 -0.886,-0.037 -1.272,-0.374 l -0.804,0.803 c 0.492,0.479 1.116,0.686 2.069,0.686 1.064,0 2.137,-0.533 2.137,-1.726 0,-0.542 -0.131,-0.935 -0.404,-1.201 -0.233,-0.233 -0.599,-0.385 -1.085,-0.453 z"
     fill="#e42313"
     id="path78" />
  <path
     d="m 53.752,90.024 h -1.268 v 5.565 h 1.268 z"
     fill="#e42313"
     id="path80" />
  <path
     d="m 58.461,95.589 h 1.27 V 91.14 h 1.401 v -1.116 h -4.074 v 1.116 h 1.403 z"
     fill="#e42313"
     id="path82" />
  <path
     d="m 64.44,95.589 h 1.268 V 90.024 H 64.44 Z"
     fill="#e42313"
     id="path84" />
  <path
     d="m 71.888,94.24 c -0.104,0.136 -0.321,0.282 -0.614,0.282 -0.294,0 -0.509,-0.146 -0.615,-0.282 -0.138,-0.181 -0.223,-0.368 -0.223,-1.433 0,-1.07 0.088,-1.265 0.223,-1.441 0.133,-0.172 0.362,-0.275 0.615,-0.275 0.251,0 0.481,0.103 0.614,0.275 0.134,0.176 0.222,0.371 0.222,1.441 0,1.065 -0.084,1.252 -0.222,1.433 z m 1.491,-1.529 c 0.002,-0.8 0.002,-1.555 -0.558,-2.115 -0.431,-0.429 -0.906,-0.621 -1.547,-0.621 -0.64,0 -1.117,0.192 -1.548,0.623 -0.558,0.558 -0.558,1.313 -0.558,2.113 v 0.191 c 0,0.8 0,1.555 0.558,2.115 0.431,0.429 0.908,0.621 1.548,0.621 0.641,0 1.116,-0.192 1.547,-0.621 0.56,-0.56 0.56,-1.315 0.558,-2.115 z"
     fill="#e42313"
     id="path86" />
  <path
     d="m 81.161,95.589 v -5.565 h -1.269 v 3.028 l -1.93,-3.028 h -1.123 v 5.565 h 1.268 v -3.027 l 1.931,3.027 z"
     fill="#e42313"
     id="path88" />
  <path
     d="m 16.131,102.416 h 2.12 v -1.119 h -2.12 v -1.089 h 2.483 v -1.12 h -3.755 v 5.585 h 3.755 v -1.119 h -2.483 z"
     fill="#e42313"
     id="path90" />
  <path
     d="m 16.666,97.081 -0.357,1.311 h 0.671 l 0.861,-1.311 z"
     fill="#e42313"
     id="path92" />
  <path
     d="m 24.656,100.769 h 1.301 C 25.745,99.67 24.988,99.04 23.866,99.04 c -0.628,0 -1.117,0.199 -1.541,0.622 -0.561,0.562 -0.561,1.319 -0.559,2.123 v 0.192 c -0.002,0.802 -0.002,1.561 0.559,2.12 0.424,0.426 0.913,0.625 1.541,0.625 1.122,0 1.879,-0.63 2.091,-1.732 h -1.301 c -0.084,0.277 -0.262,0.61 -0.781,0.61 -0.256,0 -0.477,-0.096 -0.606,-0.265 -0.136,-0.178 -0.231,-0.386 -0.231,-1.455 0,-1.068 0.095,-1.276 0.231,-1.453 0.129,-0.171 0.35,-0.268 0.606,-0.268 0.519,0 0.697,0.334 0.781,0.61 z"
     fill="#e42313"
     id="path94" />
  <path
     d="m 31.591,103.319 c -0.137,0.178 -0.366,0.282 -0.616,0.282 -0.249,0 -0.479,-0.104 -0.615,-0.282 -0.138,-0.181 -0.223,-0.369 -0.223,-1.439 0,-1.076 0.085,-1.265 0.223,-1.446 0.133,-0.172 0.362,-0.274 0.615,-0.274 0.253,0 0.483,0.102 0.616,0.274 0.138,0.181 0.222,0.37 0.222,1.446 0,1.07 -0.084,1.258 -0.222,1.439 z M 30.975,99.04 c -0.642,0 -1.121,0.192 -1.552,0.623 -0.559,0.561 -0.559,1.318 -0.558,2.122 v 0.19 c -10e-4,0.804 -10e-4,1.563 0.558,2.123 0.431,0.43 0.91,0.624 1.552,0.624 0.643,0 1.12,-0.194 1.552,-0.624 0.558,-0.56 0.558,-1.319 0.558,-2.121 v -0.194 c 0,-0.802 0,-1.561 -0.558,-2.12 -0.43,-0.431 -0.909,-0.623 -1.552,-0.623"
     fill="#e42313"
     id="path96" />
  <path
     d="m 37.671,99.088 h -1.272 v 5.585 h 3.672 v -1.119 h -2.4 z"
     fill="#e42313"
     id="path98" />
  <path
     d="m 45.565,103.319 c -0.137,0.178 -0.366,0.282 -0.616,0.282 -0.294,0 -0.511,-0.146 -0.615,-0.282 -0.138,-0.181 -0.222,-0.369 -0.222,-1.439 0,-1.073 0.088,-1.268 0.222,-1.446 0.133,-0.172 0.362,-0.274 0.615,-0.274 0.253,0 0.483,0.102 0.616,0.274 0.138,0.181 0.222,0.37 0.222,1.446 0,1.07 -0.084,1.258 -0.222,1.439 z M 44.949,99.04 c -0.642,0 -1.121,0.192 -1.55,0.623 -0.561,0.561 -0.559,1.318 -0.559,2.122 v 0.19 c 0,0.804 -0.002,1.563 0.559,2.123 0.429,0.43 0.908,0.624 1.55,0.624 0.643,0 1.12,-0.194 1.552,-0.624 0.56,-0.56 0.558,-1.319 0.558,-2.123 v -0.19 c 0,-0.804 0.002,-1.561 -0.558,-2.122 -0.43,-0.431 -0.909,-0.623 -1.552,-0.623"
     fill="#e42313"
     id="path100" />
  <path
     d="m 53.161,100.803 h 1.284 c -0.104,-0.587 -0.514,-1.762 -2.154,-1.762 -0.637,0 -1.113,0.192 -1.543,0.622 -0.56,0.56 -0.56,1.319 -0.558,2.123 v 0.19 c -0.002,0.804 -0.002,1.561 0.558,2.122 0.425,0.426 0.915,0.623 1.543,0.623 0.708,0 1.193,-0.187 1.614,-0.623 0.408,-0.414 0.56,-0.918 0.56,-1.857 v -0.728 h -2.106 v 1.039 H 53.2 v 0.147 c 0,0.273 -0.082,0.506 -0.235,0.658 -0.152,0.162 -0.38,0.244 -0.674,0.244 -0.255,0 -0.478,-0.097 -0.607,-0.267 -0.134,-0.176 -0.222,-0.371 -0.222,-1.453 0,-1.073 0.088,-1.27 0.222,-1.446 0.135,-0.176 0.356,-0.275 0.607,-0.275 0.477,0 0.739,0.192 0.87,0.643 z"
     fill="#e42313"
     id="path102" />
  <path
     d="M 57.778,104.673 H 59.05 V 99.088 H 57.778 Z"
     fill="#e42313"
     id="path104" />
  <path
     d="m 65.28,102.73 -0.013,0.143 -0.326,-0.328 -0.621,0.621 0.402,0.403 -0.122,0.024 c -0.047,0.008 -0.085,0.008 -0.126,0.008 -0.294,0 -0.511,-0.145 -0.615,-0.283 -0.138,-0.181 -0.223,-0.37 -0.223,-1.439 0,-1.071 0.088,-1.268 0.223,-1.444 0.133,-0.172 0.362,-0.275 0.615,-0.275 0.253,0 0.483,0.103 0.616,0.275 0.134,0.176 0.222,0.373 0.222,1.444 0,0.415 -0.02,0.684 -0.032,0.851 z m 0.985,1.067 c 0.321,-0.513 0.319,-1.15 0.319,-1.825 v -0.186 c 0,-0.804 0.002,-1.563 -0.56,-2.124 -0.428,-0.429 -0.907,-0.621 -1.55,-0.621 -0.642,0 -1.119,0.192 -1.55,0.622 -0.561,0.56 -0.56,1.319 -0.56,2.123 v 0.19 c 0,0.804 -10e-4,1.561 0.56,2.122 0.431,0.431 0.908,0.623 1.55,0.623 0.425,0 0.777,-0.084 1.075,-0.257 l 0.045,-0.025 0.43,0.431 0.621,-0.621 -0.407,-0.407 z"
     fill="#e42313"
     id="path106" />
  <path
     d="m 71.073,102.7 v -3.611 h -1.272 v 3.643 c 0,1.152 0.881,1.99 2.094,1.99 1.224,0 2.11,-0.838 2.11,-1.99 v -3.643 h -1.272 v 3.611 c 0,0.556 -0.321,0.901 -0.838,0.901 -0.508,0 -0.822,-0.345 -0.822,-0.901 z"
     fill="#e42313"
     id="path108" />
  <path
     d="M 78.679,102.416 H 80.8 v -1.119 h -2.121 v -1.089 h 2.482 v -1.12 h -3.754 v 5.585 h 3.754 v -1.119 h -2.482 z"
     fill="#e42313"
     id="path110" />
  <mask
     id="mask2"
     mask-type="alpha"
     maskUnits="userSpaceOnUse"
     x="262"
     y="0"
     width="22"
     height="151">
    <rect
       x="262"
       width="22"
       height="151"
       fill="#c4c4c4"
       id="rect112"
       y="0" />
  </mask>
  <g
     mask="url(#mask2)"
     id="g115"
     transform="translate(-191,-20)" />
</svg>
