<?xml version="1.0" encoding="UTF-8" standalone="no"?>
<svg
   width="512"
   height="512"
   preserveAspectRatio="xMidYMid meet"
   viewBox="0 0 512 512"
   style="-ms-transform:rotate(360deg);-webkit-transform:rotate(360deg)"
   version="1.1"
   id="svg4"
   sodipodi:docname="bolt.svg"
   inkscape:version="1.1.2 (0a00cf5339, 2022-02-04)"
   xmlns:inkscape="http://www.inkscape.org/namespaces/inkscape"
   xmlns:sodipodi="http://sodipodi.sourceforge.net/DTD/sodipodi-0.dtd"
   xmlns="http://www.w3.org/2000/svg"
   xmlns:svg="http://www.w3.org/2000/svg">
  <defs
     id="defs8" />
  <sodipodi:namedview
     id="namedview6"
     pagecolor="#505050"
     bordercolor="#eeeeee"
     borderopacity="1"
     inkscape:pageshadow="0"
     inkscape:pageopacity="0"
     inkscape:pagecheckerboard="0"
     showgrid="false"
     inkscape:zoom="1.6484375"
     inkscape:cx="192"
     inkscape:cy="256"
     inkscape:window-width="1920"
     inkscape:window-height="1025"
     inkscape:window-x="1920"
     inkscape:window-y="0"
     inkscape:window-maximized="1"
     inkscape:current-layer="svg4" />
  <path
     fill="currentColor"
     d="m 304.65181,224 h 111.5 c 13.3,0 25.3,8.3 29.1,20.7 5.5,12.5 2,26.6 -8,35.4 l -256,224 c -11.3,9.8 -27.83,10.6 -39.91,1.8 -12.09,-8.8 -16.49,-24.8 -10.6,-38.5 l 76.91,-179.4 h -112.4 c -12.43,0 -24.367,-8.3 -29.056,-20.7 a 32.094,32.094 0 0 1 8.886,-35.4 l 255.97,-223.982 c 11.3,-9.838 27.8,-10.587 39.9,-1.804 12.1,8.786 16.5,24.756 10.6,38.496 z"
     id="path2"
     style="fill:#ffc107;fill-opacity:1" />
</svg>
