<?xml version="1.0" encoding="UTF-8" standalone="no"?>
<svg xmlns:dc="http://purl.org/dc/elements/1.1/" xmlns:cc="http://creativecommons.org/ns#" xmlns:rdf="http://www.w3.org/1999/02/22-rdf-syntax-ns#" xmlns:svg="http://www.w3.org/2000/svg" xmlns="http://www.w3.org/2000/svg" id="svg3357" version="1.1" width="180" viewBox="0 0 179.99944 180" height="180" xml:space="preserve"><metadata id="metadata3387"><rdf:RDF><cc:Work rdf:about=""><dc:format>image/svg+xml</dc:format><dc:type rdf:resource="http://purl.org/dc/dcmitype/StillImage"/><dc:title/></cc:Work></rdf:RDF></metadata><defs id="defs3359"/><circle r="89.824081" cy="90.175919" cx="89.823799" id="path4209" style="color:#000000;clip-rule:nonzero;display:inline;overflow:visible;visibility:visible;opacity:1;isolation:auto;mix-blend-mode:normal;color-interpolation:sRGB;color-interpolation-filters:linearRGB;solid-color:#000000;solid-opacity:1;fill:#00a7de;fill-opacity:1;fill-rule:nonzero;stroke:none;stroke-width:0.35183573;stroke-linecap:butt;stroke-linejoin:miter;stroke-miterlimit:4;stroke-dasharray:none;stroke-dashoffset:0;stroke-opacity:1;color-rendering:auto;image-rendering:auto;shape-rendering:auto;text-rendering:auto;enable-background:accumulate"/><path style="fill:#ffffff" d="m 142.79162,106.19196 -14.28921,0 c -6.62163,0 -11.86816,-5.1156 -11.86816,-12.309242 l 26.94393,0 c 2.22859,0 4.09738,-2.083617 4.09738,-4.370855 0.10878,-11.720696 -8.69124,-20.175106 -19.38792,-20.175106 -9.84598,0 -18.2276,7.422364 -19.45486,16.928345 l -14.718757,0 0,-13.132089 c 0,-2.100353 -1.790684,-3.807413 -3.882604,-3.807413 -2.114234,0 -3.882605,1.70706 -3.882605,3.807413 l 0,13.137668 -16.088263,-0.0056 c 2.133759,-2.499225 3.441906,-6.209012 3.441906,-9.865803 0,-9.664972 -7.834939,-17.511312 -17.50798,-17.511312 l -15.209657,0 c -2.09471,0 -3.810085,1.687535 -3.810085,3.818571 l 0,47.457383 c 0,2.10872 1.701429,3.80184 3.810085,3.80184 2.108656,0 3.810085,-1.69312 3.810085,-3.80184 l 0,-16.281223 14.241795,0 13.379923,18.507103 c 0.753092,1.03204 1.910621,1.57596 3.101621,1.57596 0.775406,0 1.548022,-0.2343 2.220225,-0.72243 1.701429,-1.23009 2.086342,-3.61496 0.850715,-5.31644 l -10.14721,-14.044193 17.90684,0 c -0.01674,0.956735 0,8.939753 0,8.939753 0,6.58557 4.786315,11.08473 11.073233,11.08473 l 2.281588,0 c 2.125395,0 3.835185,-1.73495 3.835185,-3.85483 0,-2.1143 -1.70979,-3.86041 -3.835185,-3.86041 l -2.281588,0 c -1.838101,0 -3.299656,-1.55086 -3.299656,-3.53964 l 0,-8.769603 14.587659,0 c 0,11.352513 8.92553,20.024483 19.71426,20.024483 l 14.25574,0 c 2.11424,0 3.9356,-1.74611 3.9356,-3.85483 0,-2.11988 -1.70422,-3.86041 -3.82403,-3.86041 M 128.2709,77.010159 c 5.62308,0 10.78873,3.94409 11.60598,9.260522 l -22.98881,0 c 0.90649,-5.034712 5.75696,-9.260522 11.38283,-9.260522 m -72.040163,9.260522 -11.37168,0 0,-19.759499 11.37168,0 c 5.458518,0 9.873865,4.421062 9.873865,9.871381 0,5.461477 -4.415347,9.888118 -9.873865,9.888118"/></svg>